<?xml version="1.0" encoding="utf-8"?>
<!-- Generator: Adobe Illustrator 16.0.0, SVG Export Plug-In . SVG Version: 6.00 Build 0)  -->
<!DOCTYPE svg PUBLIC "-//W3C//DTD SVG 1.1//EN" "http://www.w3.org/Graphics/SVG/1.1/DTD/svg11.dtd">
<svg version="1.1" id="Layer_1" xmlns="http://www.w3.org/2000/svg" xmlns:xlink="http://www.w3.org/1999/xlink" x="0px" y="0px"
	 width="100px" height="20px" viewBox="0 0 100 20" enable-background="new 0 0 100 20" xml:space="preserve">
<g>
	<polygon fill="#FFFFFF" points="5.46,13.019 0.997,8.668 7.165,7.772 9.923,2.183 12.682,7.772 18.849,8.668 14.386,13.019 
		15.439,19.161 9.923,16.261 4.407,19.161 	"/>
	<path fill="#61A804" d="M9.923,3.312l2.194,4.445l0.232,0.472l0.52,0.076l4.904,0.713l-3.549,3.46l-0.376,0.367l0.089,0.518
		l0.838,4.885l-4.387-2.307l-0.465-0.245L9.458,15.94l-4.387,2.307l0.838-4.885l0.089-0.518l-0.376-0.367l-3.549-3.46l4.905-0.713
		l0.52-0.076l0.233-0.472L9.923,3.312 M9.923,1.053l-3.09,6.262l-6.91,1.004l5,4.874l-1.18,6.882l6.18-3.25l6.181,3.25l-1.181-6.882
		l5-4.874l-6.909-1.004L9.923,1.053L9.923,1.053z"/>
</g>
<g>
	<polygon fill="#FFFFFF" points="25.46,13.019 20.997,8.668 27.165,7.772 29.923,2.183 32.682,7.772 38.849,8.668 34.386,13.019 
		35.439,19.161 29.923,16.261 24.407,19.161 	"/>
	<path fill="#61A804" d="M29.923,3.312l2.194,4.445l0.232,0.472l0.52,0.076l4.904,0.713l-3.549,3.46l-0.376,0.367l0.089,0.518
		l0.838,4.885l-4.387-2.307l-0.465-0.245l-0.465,0.245l-4.387,2.307l0.838-4.885l0.089-0.518l-0.376-0.367l-3.549-3.46l4.905-0.713
		l0.52-0.076l0.233-0.472L29.923,3.312 M29.923,1.053l-3.09,6.262l-6.91,1.004l5,4.874l-1.18,6.882l6.18-3.25l6.181,3.25
		l-1.181-6.882l5-4.874l-6.909-1.004L29.923,1.053L29.923,1.053z"/>
</g>
<g>
	<polygon fill="#FFFFFF" points="45.46,13.019 40.997,8.668 47.165,7.772 49.923,2.183 52.682,7.772 58.849,8.668 54.386,13.019 
		55.439,19.161 49.923,16.261 44.407,19.161 	"/>
	<path fill="#61A804" d="M49.923,3.312l2.194,4.445l0.232,0.472l0.521,0.076l4.904,0.713l-3.55,3.46l-0.376,0.367l0.089,0.518
		l0.838,4.885l-4.387-2.307l-0.465-0.245l-0.465,0.245l-4.387,2.307l0.838-4.885l0.089-0.518l-0.376-0.367l-3.549-3.46l4.905-0.713
		l0.52-0.076l0.233-0.472L49.923,3.312 M49.923,1.053l-3.09,6.262l-6.91,1.004l5,4.874l-1.18,6.882l6.18-3.25l6.181,3.25
		l-1.181-6.882l5-4.874l-6.909-1.004L49.923,1.053L49.923,1.053z"/>
</g>
<g>
	<polygon fill="#FFFFFF" points="69.923,16.261 64.406,19.161 65.46,13.019 60.997,8.668 67.164,7.772 69.923,2.183 72.682,7.772 
		78.849,8.668 74.386,13.019 75.439,19.161 	"/>
	<path fill="#61A804" d="M69.923,3.312l2.194,4.445l0.232,0.472l0.521,0.076l4.904,0.713l-3.55,3.46l-0.376,0.367l0.089,0.518
		l0.838,4.885l-4.387-2.307l-0.466-0.245l-0.466,0.245l-4.387,2.307l0.838-4.885l0.089-0.518l-0.376-0.367l-3.55-3.46l4.904-0.713
		l0.521-0.076l0.232-0.472L69.923,3.312 M69.923,1.053l-3.091,6.262l-6.909,1.004l5,4.874l-1.181,6.882l6.181-3.25l6.181,3.25
		l-1.181-6.882l5-4.874l-6.909-1.004L69.923,1.053L69.923,1.053z"/>
</g>
<g>
	<polygon fill="#FFFFFF" points="89.923,16.261 84.406,19.161 85.46,13.019 80.997,8.668 87.164,7.772 89.923,2.183 92.682,7.772 
		98.849,8.668 94.386,13.019 95.439,19.161 	"/>
	<path fill="#61A804" d="M89.923,3.312l2.194,4.445l0.232,0.472l0.521,0.076l4.904,0.713l-3.55,3.46l-0.376,0.367l0.089,0.518
		l0.838,4.885l-4.387-2.307l-0.466-0.245l-0.466,0.245l-4.387,2.307l0.838-4.885l0.089-0.518l-0.376-0.367l-3.55-3.46l4.904-0.713
		l0.521-0.076l0.232-0.472L89.923,3.312 M89.923,1.053l-3.091,6.262l-6.909,1.004l5,4.874l-1.181,6.882l6.181-3.25l6.181,3.25
		l-1.181-6.882l5-4.874l-6.909-1.004L89.923,1.053L89.923,1.053z"/>
</g>
</svg>
